<?xml version="1.0" standalone="no"?>
<!DOCTYPE svg PUBLIC "-//W3C//DTD SVG 20010904//EN"
 "http://www.w3.org/TR/2001/REC-SVG-20010904/DTD/svg10.dtd">
<svg version="1.0" xmlns="http://www.w3.org/2000/svg"
 width="676.000000pt" height="676.000000pt" viewBox="0 0 676.000000 676.000000"
 preserveAspectRatio="xMidYMid meet">
<metadata>
Created by potrace 1.11, written by Peter Selinger 2001-2013
</metadata>
<g transform="translate(0.000000,676.000000) scale(0.100000,-0.100000)"
fill="#000000" stroke="none">
<path d="M2350 6435 c0 -17 8 -29 24 -37 31 -13 56 -5 56 20 0 26 -20 42 -52
42 -23 0 -28 -4 -28 -25z"/>
<path d="M2200 6311 c-14 -28 -12 -67 4 -80 20 -17 54 2 62 33 13 52 -42 91
-66 47z"/>
<path d="M2395 6256 c-37 -40 -60 -115 -69 -228 -4 -44 -16 -98 -28 -124 -21
-50 -43 -137 -58 -239 -5 -33 -17 -85 -25 -115 -20 -69 -23 -80 -36 -160 -6
-36 -14 -74 -18 -85 -8 -19 -27 -99 -50 -210 -6 -27 -15 -90 -21 -138 -5 -49
-14 -103 -19 -120 -5 -18 -17 -68 -26 -112 -9 -44 -21 -96 -26 -115 -4 -19
-11 -61 -15 -92 -4 -32 -10 -58 -14 -58 -10 0 -60 73 -60 88 0 7 -3 12 -7 12
-5 0 -19 16 -32 35 -13 19 -32 45 -43 57 -11 13 -36 43 -56 67 -47 56 -130
138 -194 193 -28 24 -69 59 -92 78 -22 19 -45 39 -51 43 -108 84 -187 141
-260 188 -49 33 -95 63 -102 69 -7 5 -14 10 -17 10 -7 0 -137 79 -184 112 -54
38 -181 109 -203 113 -10 2 -34 14 -55 27 -22 13 -66 32 -99 43 -33 10 -81 29
-108 41 -78 36 -119 40 -152 11 -27 -23 -28 -24 -12 -53 26 -47 87 -180 87
-190 0 -5 16 -50 35 -101 19 -50 43 -133 55 -185 33 -153 46 -208 75 -313 16
-55 31 -135 35 -177 5 -42 15 -98 23 -125 8 -26 22 -75 31 -108 8 -33 25 -92
36 -131 11 -39 27 -110 35 -159 9 -48 24 -122 35 -164 10 -42 24 -128 30 -191
7 -63 16 -137 22 -165 5 -27 14 -79 18 -115 34 -262 42 -314 52 -334 15 -29
59 -66 83 -70 11 -2 44 -9 73 -15 30 -6 83 -11 118 -11 36 0 81 -7 101 -15 19
-8 46 -15 59 -15 12 0 25 -4 28 -9 10 -15 227 -76 299 -84 21 -2 40 -6 42 -9
3 -3 -2 -25 -11 -51 -13 -38 -14 -56 -5 -99 6 -29 18 -66 26 -82 16 -31 14
-66 -10 -146 -8 -25 -17 -70 -20 -100 -4 -30 -9 -64 -12 -75 -18 -84 -51 -278
-70 -417 -3 -21 -9 -38 -14 -38 -5 0 -9 -12 -9 -27 -1 -16 -7 -57 -16 -93 -8
-36 -17 -81 -20 -100 -3 -19 -9 -44 -14 -55 -10 -27 -26 -103 -41 -195 -25
-165 -62 -346 -74 -370 -7 -14 -18 -52 -25 -84 -7 -33 -21 -80 -32 -105 -11
-25 -22 -68 -24 -96 -3 -27 -12 -69 -20 -93 -7 -23 -14 -47 -14 -52 0 -4 -9
-29 -20 -54 -11 -26 -18 -48 -17 -50 1 -1 -3 -9 -9 -17 -7 -8 -22 -54 -34
-104 -12 -49 -29 -102 -36 -117 -8 -15 -14 -44 -14 -64 0 -35 -19 -106 -46
-172 -8 -18 -14 -37 -14 -42 0 -7 709 -10 1969 -10 l1969 0 4 80 c2 44 0 81
-3 83 -4 1 -3 25 2 52 17 96 32 387 29 570 0 61 6 191 15 290 l16 180 32 25
c52 41 166 161 172 181 3 10 16 21 28 25 32 10 96 73 119 119 12 22 30 46 41
54 53 37 74 180 42 276 -15 42 -15 48 2 78 10 17 22 35 26 38 4 3 17 30 28 60
11 30 31 70 43 89 67 104 94 149 110 185 10 22 48 84 85 139 36 54 75 114 87
132 11 19 24 31 28 27 4 -5 6 -3 5 2 -5 16 21 85 54 145 41 76 41 74 86 172
33 70 49 92 83 116 114 79 218 217 218 290 0 46 -19 79 -87 143 -86 82 -91 92
-98 178 -3 48 -14 93 -28 121 -35 72 -84 152 -117 190 -16 19 -30 39 -30 44 0
11 -131 136 -143 136 -5 0 -21 10 -36 23 -15 12 -42 33 -59 46 -18 13 -32 28
-32 33 0 5 -17 32 -39 61 -21 29 -50 72 -63 97 -14 25 -39 69 -57 98 -17 29
-31 56 -31 61 0 4 -18 52 -40 107 -34 85 -45 132 -75 329 -20 127 -42 262 -49
300 -19 95 -35 198 -41 270 -2 33 -12 87 -21 120 -9 33 -20 79 -25 103 -5 23
-13 50 -18 60 -5 10 -15 47 -21 82 -31 174 -76 250 -148 250 -32 0 -46 -7 -83
-44 -70 -70 -179 -207 -179 -225 0 -5 -3 -11 -7 -13 -10 -4 -30 -39 -103 -183
-66 -132 -77 -149 -167 -284 -34 -51 -83 -136 -109 -188 l-48 -95 -50 6 c-28
4 -125 11 -216 16 -154 9 -166 11 -182 32 -10 13 -18 27 -18 31 0 11 -38 62
-88 115 -23 26 -45 56 -48 67 -4 11 -10 22 -14 25 -4 3 -22 30 -40 60 -19 30
-52 78 -75 105 -23 28 -61 79 -86 115 -50 74 -56 80 -85 80 -38 0 -73 -38 -90
-98 -24 -88 -57 -184 -71 -212 -7 -14 -13 -34 -13 -46 0 -11 -3 -24 -7 -28 -8
-8 -28 -79 -44 -161 -16 -84 -27 -102 -61 -107 -43 -7 -50 3 -148 182 -17 30
-34 62 -39 70 -5 8 -33 65 -62 125 -29 61 -56 112 -60 115 -4 3 -21 30 -37 60
-16 30 -43 78 -60 106 -18 28 -32 54 -32 57 0 4 -20 37 -45 74 -25 37 -45 71
-45 75 0 12 -63 107 -93 140 -26 30 -83 58 -118 58 -12 0 -36 -15 -54 -34z
m2631 -957 c4 -6 8 -30 10 -53 2 -22 6 -68 10 -102 4 -45 1 -71 -11 -100 -16
-38 -17 -38 -32 -19 -12 17 -14 39 -8 130 3 61 6 120 6 133 -1 23 13 30 25 11z
m-2563 -650 c-4 -4 -6 27 -3 69 l5 77 3 -69 c2 -38 -1 -73 -5 -77z m847 -141
c0 -37 -5 -79 -10 -94 -10 -25 -12 -26 -26 -12 -14 13 -14 26 -4 94 7 44 14
86 17 94 9 32 23 -16 23 -82z m2284 -630 c21 -29 21 -110 0 -149 -24 -48 -39
-31 -42 52 -5 113 9 144 42 97z m-3273 -714 c-1 -42 -7 -88 -13 -103 l-10 -26
-19 24 c-24 29 -29 106 -13 200 l5 34 27 -26 c24 -25 26 -32 23 -103z m952
-372 c-5 -20 -15 -38 -22 -40 -11 -4 -12 12 -6 84 4 49 10 94 13 99 11 17 24
-106 15 -143z m-1340 -957 c-3 -144 -23 -149 -23 -6 0 86 3 112 13 108 9 -3
11 -31 10 -102z m-173 -1175 c0 -4 3 -22 6 -39 6 -29 5 -31 -20 -29 -21 2 -27
9 -32 35 -3 17 -3 36 0 41 7 11 46 4 46 -8z"/>
<path d="M5337 6173 c-4 -3 -7 -15 -7 -25 0 -13 8 -18 30 -18 23 0 30 5 30 19
0 24 -37 41 -53 24z"/>
<path d="M2137 6070 c-31 -25 -34 -50 -9 -73 22 -20 36 -21 61 -5 17 10 17 14
4 47 -21 51 -26 54 -56 31z"/>
<path d="M5463 5973 c-19 -7 -16 -24 10 -56 15 -20 27 -26 40 -22 17 7 23 41
9 61 -9 14 -43 24 -59 17z"/>
<path d="M617 5813 c-14 -13 -6 -41 13 -46 46 -12 75 14 48 41 -13 13 -50 16
-61 5z"/>
<path d="M3164 5745 c-8 -21 4 -35 31 -35 24 0 35 16 28 38 -6 17 -52 15 -59
-3z"/>
<path d="M851 5706 c-10 -12 -9 -21 3 -43 8 -15 15 -22 16 -15 0 6 3 11 8 11
29 -5 42 3 42 25 0 35 -46 49 -69 22z"/>
<path d="M3913 5628 c-27 -35 -19 -68 17 -68 24 0 64 46 57 64 -8 19 -60 21
-74 4z"/>
<path d="M4146 5547 c-11 -8 -17 -23 -14 -38 6 -43 88 -37 88 6 0 32 -47 52
-74 32z"/>
<path d="M1838 5343 c-24 -6 -25 -61 -2 -70 39 -15 74 47 37 65 -10 4 -26 7
-35 5z"/>
<path d="M5623 5244 c-20 -9 -15 -36 11 -66 28 -33 61 -36 77 -7 21 41 -41 92
-88 73z"/>
<path d="M1804 5185 c-7 -18 12 -45 32 -45 16 0 33 30 27 48 -7 17 -52 15 -59
-3z"/>
<path d="M5708 5008 c-3 -7 -2 -24 2 -38 4 -19 13 -26 38 -28 28 -3 32 0 32
22 0 42 -60 79 -72 44z"/>
<path d="M5780 4805 c0 -26 34 -65 57 -65 23 0 26 27 7 59 -23 40 -64 43 -64
6z"/>
<path d="M400 4640 c-25 -25 -25 -52 0 -75 17 -16 23 -17 45 -5 32 17 35 39
11 73 -24 32 -30 33 -56 7z"/>
<path d="M455 4297 c-26 -19 -13 -65 20 -73 47 -12 73 36 39 70 -19 20 -35 20
-59 3z"/>
<path d="M464 4117 c-21 -25 10 -67 50 -67 29 0 50 31 41 60 -5 15 -15 20 -43
20 -20 -1 -42 -6 -48 -13z"/>
<path d="M6329 3824 c-15 -19 -6 -38 33 -67 48 -36 94 6 49 45 -19 16 -56 38
-64 38 -3 0 -10 -7 -18 -16z"/>
<path d="M6511 3522 c-14 -27 21 -82 53 -82 13 0 26 7 30 15 8 22 -10 62 -33
74 -28 15 -39 14 -50 -7z"/>
<path d="M616 3437 c-37 -27 14 -89 54 -67 25 14 25 35 0 60 -24 24 -30 24
-54 7z"/>
<path d="M1154 2800 c-57 -23 -25 -99 34 -83 40 10 40 84 1 90 -8 1 -23 -2
-35 -7z"/>
<path d="M1406 2705 c-21 -21 -20 -31 4 -55 32 -32 80 -20 80 20 -1 40 -55 63
-84 35z"/>
<path d="M6088 2568 c-18 -58 -15 -78 12 -78 22 0 33 15 49 66 15 48 9 64 -23
64 -18 0 -25 -10 -38 -52z"/>
<path d="M6021 2374 c-13 -30 -1 -54 29 -54 26 0 42 24 34 54 -9 36 -46 35
-63 0z"/>
<path d="M5970 2238 c-35 -38 -22 -98 22 -98 25 0 53 60 44 94 -8 32 -37 34
-66 4z"/>
<path d="M1221 1581 c-26 -26 -26 -33 -3 -62 26 -31 52 -20 52 24 0 48 -22 65
-49 38z"/>
<path d="M5565 1455 c-31 -54 -30 -79 5 -83 19 -2 29 5 43 29 28 50 19 99 -18
99 -2 0 -15 -20 -30 -45z"/>
<path d="M1032 1140 c-17 -27 -15 -44 6 -63 26 -24 51 -21 64 8 9 19 8 29 -6
50 -20 30 -47 32 -64 5z"/>
<path d="M5267 1022 c-26 -29 -22 -70 8 -78 27 -7 85 28 85 51 0 41 -64 59
-93 27z"/>
<path d="M5221 817 c-17 -21 -3 -47 26 -47 21 0 24 4 21 27 -3 31 -29 41 -47
20z"/>
<path d="M980 812 c-20 -7 -30 -22 -30 -48 0 -30 25 -48 55 -40 19 5 25 13 25
35 0 32 -27 61 -50 53z"/>
<path d="M933 679 c-29 -11 -30 -48 -3 -77 37 -40 74 -19 68 39 -3 36 -30 51
-65 38z"/>
<path d="M824 239 c-17 -19 -17 -23 -3 -47 28 -51 73 -39 71 19 -1 50 -35 64
-68 28z"/>
<path d="M5613 43 c9 -2 23 -2 30 0 6 3 -1 5 -18 5 -16 0 -22 -2 -12 -5z"/>
<path d="M787 23 c-14 -13 -6 -23 18 -23 18 0 23 4 19 15 -6 16 -26 20 -37 8z"/>
</g>
</svg>
